<?xml version="1.0" encoding="UTF-8" standalone="no"?>
<svg width="148px" height="178px" viewBox="0 0 148 178" version="1.1" xmlns="http://www.w3.org/2000/svg" xmlns:xlink="http://www.w3.org/1999/xlink">
    <!-- Generator: Sketch 41.2 (35397) - http://www.bohemiancoding.com/sketch -->
    <title>grommet-peep-bryan</title>
    <desc>Created with Sketch.</desc>
    <defs></defs>
    <g id="Page-1" stroke="none" stroke-width="1" fill="none" fill-rule="evenodd">
        <g id="grommet-peep-bryan">
            <path d="M113.5,101.5 C106.596441,101.5 103,95.9035594 103,89 C103,82.0964406 108.596441,75 115.5,75 C122.403559,75 130.5,80 128,89 C125.5,98 120.403559,101.5 113.5,101.5 Z" id="Oval-2-Copy-8" fill="#E9AB84"></path>
            <path d="M30.9639192,101.5 C37.8674786,101.5 41.4639192,95.9035594 41.4639192,89 C41.4639192,82.0964406 35.8674786,75 28.9639192,75 C22.0603599,75 13.9639192,80 16.4639192,89 C18.9639192,98 24.0603599,101.5 30.9639192,101.5 Z" id="Oval-2-Copy-15" fill="#E9AB84"></path>
            <path d="M72.0915034,149.500669 C85.7312829,149.500669 84.444392,148.449867 100.444735,134.03701 C106.069591,128.970228 109.628086,122.980688 112.705887,116.436621 C116.291673,108.81247 118.207611,96.7505869 118.091503,88.500669 C117.961732,79.2798855 119.179375,66.7818108 116.253736,49.8728646 C113.328097,32.9639184 94.7724783,13.9848188 72.0915034,14.000669 C49.4105284,14.0165193 30.1687184,32.8784028 27.2454106,48.7357826 C24.3221029,64.5931624 25.0915034,78.2769836 25.0915034,87.7473522 C25.0915034,96.0874396 27.3719986,108.232495 31.3765805,116.08887 C34.7069421,122.622528 39.1284981,128.151118 44.6248765,134.03701 C59.0651886,149.500669 58.4517238,149.500669 72.0915034,149.500669 Z" id="Combined-Shape-Copy-6" fill="#FFD3B7"></path>
            <path d="M72.0915034,149.500669 C85.7312829,149.500669 84.444392,148.449867 100.444735,134.03701 C106.069591,128.970228 109.628086,122.980688 112.705887,116.436621 C116.291673,108.81247 118.207611,96.7505869 118.091503,88.500669 C117.961732,79.2798855 119.179375,66.7818108 116.253736,49.8728646 C113.328097,32.9639184 94.7724783,13.9848188 72.0915034,14.000669 C126.615005,49.8728646 95.1633013,135.560088 72.0915034,149.500669 Z" id="Combined-Shape-Copy-6" fill-opacity="0.3" fill="#E9AD88"></path>
            <ellipse id="Oval-6-Copy-5" fill-opacity="0.2" fill="#FFFFFF" cx="73" cy="102" rx="3" ry="2"></ellipse>
            <ellipse id="Oval-4-Copy-11" fill="#2E6E98" cx="50" cy="81" rx="3" ry="4"></ellipse>
            <path d="M38,67.1424729 C41.5,66.1424729 51,63.3502435 60,66.3502435" id="Path-8-Copy-4" stroke="#9A7F6E" stroke-width="3" stroke-linecap="round" stroke-linejoin="round" transform="translate(49.000000, 66.071236) rotate(2.000000) translate(-49.000000, -66.071236) "></path>
            <path d="M83.0515061,67.0971097 C86.5515061,66.0971097 96.0515061,63.3048803 105.051506,66.3048803" id="Path-8-Copy-7" stroke="#9A7F6E" stroke-width="3" stroke-linecap="round" stroke-linejoin="round" transform="translate(94.051506, 66.025873) scale(-1, 1) rotate(2.000000) translate(-94.051506, -66.025873) "></path>
            <ellipse id="Oval-4-Copy-15" fill="#2E6E98" cx="95" cy="81" rx="3" ry="4"></ellipse>
            <path d="M59,87 C59,91.418278 61.9101491,95 65.5,95" id="Oval-4-Copy-19" stroke="#EEB591" stroke-width="2" stroke-linecap="round" stroke-linejoin="round" transform="translate(62.250000, 91.000000) scale(-1, 1) translate(-62.250000, -91.000000) "></path>
            <path d="M78,87 C78,91.418278 80.9101491,95 84.5,95" id="Oval-4-Copy-19" stroke="#EEB591" stroke-width="2" stroke-linecap="round" stroke-linejoin="round"></path>
            <path d="M53,105 C54,107.5 57.5,111.5 62,113" id="Oval-4-Copy-22" stroke="#EEB591" stroke-width="2" stroke-linecap="round" stroke-linejoin="round" transform="translate(57.500000, 109.000000) scale(1, -1) rotate(11.000000) translate(-57.500000, -109.000000) "></path>
            <path d="M68,125 L77,125" id="Path-3-Copy-3" stroke="#EDBF95" stroke-width="2" stroke-linecap="round" stroke-linejoin="round"></path>
            <path d="M65,102 C65.2369781,103.141833 65.6767045,104.072249 66.4668581,104.762626 C67.5195382,105.682379 69.1941858,106.176093 71.8400002,106.176093 C74.4858145,106.176093 76.1604621,105.682379 77.2131422,104.762626 C78.0032958,104.072249 78.4430222,103.141833 78.6800003,102" id="Oval-5-Copy-4" stroke="#9D7861" stroke-width="2" stroke-linecap="round" stroke-linejoin="round"></path>
            <path d="M57,116 C57.698608,116.212347 60.8389797,119.64715 72.25,119.64715 C83.6610203,119.64715 86.9931673,116 86.9931673,116" id="Path-4-Copy-2" stroke="#9D7861" stroke-width="2" stroke-linecap="round" stroke-linejoin="round"></path>
            <ellipse id="Oval-6-Copy-14" fill-opacity="0.2" fill="#FFFFFF" cx="82" cy="44.5" rx="12" ry="9.5"></ellipse>
            <g id="Group" transform="translate(24.000000, 72.000000)">
                <ellipse id="Oval-11" fill="#D8D8D8" transform="translate(55.985196, 13.624053) rotate(-17.000000) translate(-55.985196, -13.624053) " cx="55.9851962" cy="13.6240533" rx="2.1653864" ry="3.12761758"></ellipse>
                <ellipse id="Oval-11-Copy" fill="#D8D8D8" transform="translate(39.985196, 13.624053) scale(-1, 1) rotate(-17.000000) translate(-39.985196, -13.624053) " cx="39.9851962" cy="13.6240533" rx="2.1653864" ry="3.12761758"></ellipse>
                <path d="M50.8594424,2.23680373 C53.0728533,1.96190827 60.2279336,0.120873548 72.9149664,0.319434152 C85.6019992,0.517994756 88.5661354,1.66946629 89.5277703,2.47240698 C90.4894053,3.27534767 90.8038423,9.39206565 89.9356894,14.0655568 C88.5805151,19.5648616 88.5262265,20.8097857 81.0631541,22.0381155 C73.6000817,23.2664454 64.411989,23.0303134 58.7784026,21.6719532 C55.8652287,20.969534 53.8347258,11.583127 51.5058142,3.14847285" id="Path-20" stroke="#444444"></path>
                <path d="M73.6101153,0.344704939 C76.1390652,0.344704939 78.2782737,0.39142078 80.1147325,0.468517996 C88.8229629,0.834102203 94.8108235,1.63287649 95.0924139,1.87305694 C95.3740042,2.11323739 95.2661457,8.19522808 95.0924139,8.56479579 C94.918682,8.9343635 90.8038423,9.39206565 89.9356894,14.0655568 C90.9809047,9.07668968 90.7051423,3.35106242 89.6825694,2.61205968 C88.6599965,1.87305694 89.9356894,0.64573472 73.6101153,0.344704939 Z" id="Path" stroke="#444444" fill="#444444"></path>
                <path d="M47.7435303,2.37561329 C48.4913367,2.37561329 49.3650092,2.39415274 50.9003389,2.22649168 C52.4356687,2.05883063 58.5987513,0.827459832 62.6585231,0.618249904 C62.6585231,0.618249904 55.1335607,0.807747933 53.5769803,3.20094829 C52.0203998,5.59414865 53.0758291,9.59610373 53.6888032,11.4915237 C53.6888032,11.4915237 52.5236761,7.22723182 52.0321243,5.61510628 C51.8332491,4.96286197 50.7391594,4.05332303 49.7608593,4.05332303 C48.464368,4.05332303 47.7435303,4.05332303 47.7435303,4.05332303 L47.7435303,2.37561329 Z" id="Path-21" stroke="#444444" fill="#444444"></path>
                <path d="M5.55585871,2.23680373 C7.76926955,1.96190827 14.9243499,0.120873548 27.6113827,0.319434152 C40.2984155,0.517994756 43.2625516,1.66946629 44.2241866,2.47240698 C45.1858215,3.27534767 45.5002586,9.39206565 44.6321057,14.0655568 C43.0673145,19.3996637 43.2226428,20.8097857 35.7595704,22.0381155 C28.296498,23.2664454 18.8573037,22.9710496 13.4748188,21.6719532 C10.5643292,20.9694883 8.53114205,11.583127 6.20223047,3.14847285" id="Path-20" stroke="#444444" transform="translate(25.348208, 11.561701) scale(-1, 1) translate(-25.348208, -11.561701) "></path>
                <path d="M0.734508317,0.344704939 C3.2634582,0.344704939 5.40266677,0.39142078 7.23912552,0.468517996 C15.9473559,0.834102203 21.9352166,1.63287649 22.2168069,1.87305694 C22.4983972,2.11323739 22.3905387,8.19522808 22.2168069,8.56479579 C22.0430751,8.9343635 17.9282354,9.39206565 17.0600824,14.0655568 C18.1052977,9.07668968 17.8295353,3.35106242 16.8069625,2.61205968 C15.7843896,1.87305694 17.0600824,0.64573472 0.734508317,0.344704939 Z" id="Path" stroke="#444444" fill="#444444" transform="translate(11.562197, 7.205131) scale(-1, 1) translate(-11.562197, -7.205131) "></path>
                <path d="M33.3414769,2.37561329 C34.0892833,2.37561329 34.9629558,2.39415274 36.4982856,2.22649168 C38.0336153,2.05883063 44.196698,0.827459832 48.2564697,0.618249904 C48.2564697,0.618249904 40.7315074,0.807747933 39.1749269,3.20094829 C37.6183464,5.59414865 38.6737757,9.59610373 39.2867498,11.4915237 C39.2867498,11.4915237 38.1216227,7.22723182 37.630071,5.61510628 C37.4311958,4.96286197 36.3371061,4.05332303 35.3588059,4.05332303 C34.0623146,4.05332303 33.3414769,4.05332303 33.3414769,4.05332303 L33.3414769,2.37561329 Z" id="Path-21" stroke="#444444" fill="#444444" transform="translate(40.798973, 6.054887) scale(-1, 1) translate(-40.798973, -6.054887) "></path>
            </g>
            <path d="M72.0915034,149.500669 C82.0973939,149.500669 84.0706179,148.935188 90.7282891,142.944102 C93.1461886,140.76829 96.1819483,137.876861 100.444735,134.03701 C100.444735,134.03701 97.1409598,136.796708 93.0434523,139.577013 C89.025955,142.303028 81.4521461,139.570832 72.6072718,139.577013 C63.6928347,139.583242 55.5507319,142.086283 51.2392304,139.299283 C48.0526484,137.239443 44.6248765,134.03701 44.6248765,134.03701 C48.3045825,137.977487 51.0067845,140.913845 53.2164149,143.101954 C59.6780624,149.500669 61.9274367,149.500669 72.0915034,149.500669 Z" id="Combined-Shape-Copy-6" fill-opacity="0.4" fill="#9D7861"></path>
        </g>
    </g>
</svg>