<?xml version="1.0" encoding="UTF-8" standalone="no"?>
<svg width="148px" height="178px" viewBox="0 0 148 178" version="1.1" xmlns="http://www.w3.org/2000/svg" xmlns:xlink="http://www.w3.org/1999/xlink">
    <!-- Generator: Sketch 41.2 (35397) - http://www.bohemiancoding.com/sketch -->
    <title>grommet-peep-gremlin</title>
    <desc>Created with Sketch.</desc>
    <defs></defs>
    <g id="Page-1" stroke="none" stroke-width="1" fill="none" fill-rule="evenodd">
        <g id="grommet-peep-gremlin">
            <g id="Group" transform="translate(15.000000, 5.000000)">
                <g id="Group-6-Copy">
                    <path d="M95,34.5791019 C101.97476,34.5791019 109,30.7897876 109,23.0578011 C109,15.3258146 102.731986,5.57910192 95,5.57910192 C87.2680135,5.57910192 81,15.3258146 81,23.0578011 C81,30.7897876 88.0252399,34.5791019 95,34.5791019 Z" id="Oval-7" fill="#6B44B5" transform="translate(95.000000, 20.079102) scale(-1, 1) rotate(141.000000) translate(-95.000000, -20.079102) "></path>
                    <path d="M21,34.5791019 C27.9747601,34.5791019 35,30.7897876 35,23.0578011 C35,15.3258146 28.7319865,5.57910192 21,5.57910192 C13.2680135,5.57910192 7,15.3258146 7,23.0578011 C7,30.7897876 14.0252399,34.5791019 21,34.5791019 Z" id="Oval-7" fill="#6B44B5" transform="translate(21.000000, 20.079102) rotate(141.000000) translate(-21.000000, -20.079102) "></path>
                    <path d="M22.5238697,25.0172319 C14.6992437,42.7004563 12.0093403,173 12.0093403,173 L104.00934,173 C104.00934,173 101.348496,42.7004563 93.5238697,25.0172319 C87.0238697,10.3275894 29.0238697,10.3275894 22.5238697,25.0172319 Z" id="Rectangle-Copy" fill="#865CD6" transform="translate(58.009340, 93.500000) scale(-1, 1) translate(-58.009340, -93.500000) "></path>
                    <path d="M75.5556507,24.6411002 C67.7310248,42.3243246 64.5177426,173 64.5177426,173 C64.5177426,173 67.2180498,173 76.3693413,173 C78.5114081,132.305177 81.9302209,125.015504 87.6685267,108.198757 C88.4100715,106.025577 104.516843,104.5 99.5220319,102.5 C94.527221,100.5 91.9927487,97.209789 93.0220319,95 C111.938583,80.7266488 100.997774,79.9581287 99.5220319,79 C83.3495832,68.5 88.4582083,47.5 97.0220319,41 C97.4836856,40.6496017 97.9677258,35.7694832 97.5220319,35 C91.5220319,24.6411002 93.5352573,21.986068 94.527221,15 C85.1409669,16.6784013 77.6570287,19.8921014 75.5556507,24.6411002 Z" id="Rectangle-Copy" fill-opacity="0.05" fill="#000000" transform="translate(84.261016, 94.000000) scale(-1, 1) translate(-84.261016, -94.000000) "></path>
                    <path d="M57.9948109,73 C59.9948109,73 64.9948109,70.0706413 64.9948109,66.7569328 C64.9948109,63.4432243 61.3085194,63 57.9948109,63 C54.6811024,63 50.9948109,63.4432243 50.9948109,66.7569328 C50.9948109,70.0706413 55.9948109,73 57.9948109,73 Z" id="Oval-6" fill="#333333"></path>
                    <ellipse id="Oval-6" fill-opacity="0.2" fill="#FFFFFF" cx="60.4948109" cy="66" rx="2.5" ry="1"></ellipse>
                    <g id="Group-5" transform="translate(22.994811, 78.000000)">
                        <path d="M35,19 C54.3299662,19 70,12.5504332 70,4.45025685 C70,-3.64991948 54.3299662,2 35,2 C15.6700338,2 0,-3.64991948 0,4.45025685 C0,12.5504332 15.6700338,19 35,19 Z" id="Oval-8" fill="#8F2D2D"></path>
                        <path d="M48,18 C48,18.017554 46,13 41,12.0191607 C37.4952508,11.3316415 35.5,12.5 35,13 C34.587873,12.5 32.5047492,11.3316415 29,12.0191607 C24,13 22,18.017554 22,18 C33,19.5 37,19.5 48,18 Z" id="Oval-8" fill="#AE3939"></path>
                        <path d="M10,-1.27098332e-12 C10.5,2 11.75,4.5 13,4.5 C14.25,4.5 15,2.25 15.5,0.5 C15.5,0.5 12,0 10,-1.27098332e-12 Z" id="Path-5" fill="#FFFFFF"></path>
                        <path d="M54.5,-1.45750079e-12 C55,2 56.25,4.5 57.5,4.5 C58.75,4.5 59.5,2.25 60,0.5 C60,0.5 56.5,-1.86517468e-13 54.5,-1.45750079e-12 Z" id="Path-5" fill="#FFFFFF" transform="translate(57.250000, 2.250000) scale(-1, 1) translate(-57.250000, -2.250000) "></path>
                    </g>
                    <g id="Group-3" transform="translate(28.994811, 51.000000)">
                        <ellipse id="Oval-7-Copy-2" fill="#333333" cx="6" cy="6" rx="6" ry="6"></ellipse>
                        <ellipse id="Oval-7-Copy-3" fill="#333333" cx="52" cy="6" rx="6" ry="6"></ellipse>
                        <circle id="Oval-6-Copy" fill-opacity="0.2" fill="#FFFFFF" transform="translate(8.500000, 4.500000) rotate(-270.000000) translate(-8.500000, -4.500000) " cx="8.5" cy="4.5" r="1.5"></circle>
                    </g>
                    <g id="Group-4" transform="translate(81.994811, 53.000000)" fill="#FFFFFF" fill-opacity="0.2">
                        <circle id="Oval-6-Copy" transform="translate(1.500000, 2.500000) rotate(-270.000000) translate(-1.500000, -2.500000) " cx="1.5" cy="2.5" r="1.5"></circle>
                    </g>
                    <path d="M53.9948109,102 L62.9948109,102" id="Path-3-Copy-2" stroke="#6B44B5" stroke-width="2" stroke-linecap="round" stroke-linejoin="round"></path>
                    <path d="M28.4639296,39.8475323 C28.5482819,40.3976559 29.0690234,40.8672683 29.6141449,40.8959819 C29.6141449,40.8959819 32.3568887,41.0377162 36.6166629,41.2784018 C40.8764372,41.5190874 43.1262965,41.7512339 43.1262965,41.7512339 C43.6732608,41.8022569 44.1918255,41.392644 44.2817926,40.8528412 L44.9515333,36.8343971 C45.0427319,36.2872056 44.6680788,35.8475725 44.1262708,35.8572249 C44.1262708,35.8572249 41.1166629,35.8436192 36.6166629,36.3436192 C32.1166629,36.8436192 29.107055,37.4087636 29.107055,37.4087636 C28.5600766,37.5048534 28.1840951,38.022525 28.2693962,38.5788365 L28.4639296,39.8475323 Z" id="Path-8-Copy-2" fill="#6B44B5" transform="translate(36.611272, 38.806300) rotate(-6.000000) translate(-36.611272, -38.806300) "></path>
                    <path d="M70.4639296,39.8475323 C70.5482819,40.3976559 71.0690234,40.8672683 71.6141449,40.8959819 C71.6141449,40.8959819 74.3568887,41.0377162 78.6166629,41.2784018 C82.8764372,41.5190874 85.1262965,41.7512339 85.1262965,41.7512339 C85.6732608,41.8022569 86.1918255,41.392644 86.2817926,40.8528412 L86.9515333,36.8343971 C87.0427319,36.2872056 86.6680788,35.8475725 86.1262708,35.8572249 C86.1262708,35.8572249 83.1166629,35.8436192 78.6166629,36.3436192 C74.1166629,36.8436192 71.107055,37.4087636 71.107055,37.4087636 C70.5600766,37.5048534 70.1840951,38.022525 70.2693962,38.5788365 L70.4639296,39.8475323 Z" id="Path-8-Copy-2" fill="#6B44B5" transform="translate(78.611272, 38.806300) scale(-1, 1) rotate(-6.000000) translate(-78.611272, -38.806300) "></path>
                </g>
            </g>
        </g>
    </g>
</svg>