<?xml version="1.0" encoding="UTF-8" standalone="no"?>
<svg width="390px" height="204px" viewBox="0 0 390 204" version="1.1" xmlns="http://www.w3.org/2000/svg" xmlns:xlink="http://www.w3.org/1999/xlink">
    <!-- Generator: Sketch 3.6.1 (26313) - http://www.bohemiancoding.com/sketch -->
    <title>Group 5</title>
    <desc>Created with Sketch.</desc>
    <defs></defs>
    <g id="Page-1" stroke="none" stroke-width="1" fill="none" fill-rule="evenodd">
        <g id="Patterns---Desktop,-Option-2" transform="translate(-355.000000, -2150.000000)">
            <g id="Group-5" transform="translate(355.000000, 2150.000000)">
                <rect id="Rectangle-4-Copy-4" fill="#333333" x="112" y="0" width="100" height="180"></rect>
                <rect id="Rectangle-2-Copy-2" fill="#F0F0F0" x="216" y="32" width="174" height="148"></rect>
                <rect id="Rectangle-4-Copy-2" fill="#333333" x="216" y="0" width="174" height="28"></rect>
                <rect id="Rectangle-2-Copy" fill="#F0F0F0" x="0" y="32" width="100" height="148"></rect>
                <rect id="Rectangle-4-Copy" fill="#333333" x="0" y="0" width="100" height="28"></rect>
                <path d="M1.44,200 L2.672,200 L2.672,194.224 C2.672,193.296 2.56,192.048 2.496,191.12 L2.56,191.12 L3.392,193.456 L5.424,198.944 L6.176,198.944 L8.192,193.456 L9.04,191.12 L9.104,191.12 C9.024,192.048 8.928,193.296 8.928,194.224 L8.928,200 L10.192,200 L10.192,189.504 L8.624,189.504 L6.608,195.136 L5.872,197.28 L5.808,197.28 L5.04,195.136 L3.008,189.504 L1.44,189.504 L1.44,200 Z M12.448,196.128 C12.448,198.704 14.144,200.192 16.048,200.192 C17.952,200.192 19.648,198.704 19.648,196.128 C19.648,193.52 17.952,192.032 16.048,192.032 C14.144,192.032 12.448,193.52 12.448,196.128 L12.448,196.128 Z M13.808,196.128 C13.808,194.336 14.72,193.12 16.048,193.12 C17.392,193.12 18.288,194.336 18.288,196.128 C18.288,197.904 17.392,199.104 16.048,199.104 C14.72,199.104 13.808,197.904 13.808,196.128 L13.808,196.128 Z M21.776,200 L22.832,200 L22.944,199.232 L22.992,199.232 C23.68,199.84 24.496,200.192 25.216,200.192 C26.992,200.192 28.576,198.64 28.576,195.984 C28.576,193.584 27.504,192.032 25.488,192.032 C24.624,192.032 23.76,192.496 23.056,193.12 L23.088,191.712 L23.088,188.608 L21.776,188.608 L21.776,200 Z M23.088,198.272 L23.088,194.192 C23.824,193.504 24.512,193.136 25.168,193.136 C26.64,193.136 27.216,194.288 27.216,196 C27.216,197.92 26.272,199.088 24.992,199.088 C24.48,199.088 23.776,198.864 23.088,198.272 L23.088,198.272 Z M31.408,190.624 C31.92,190.624 32.32,190.272 32.32,189.776 C32.32,189.264 31.92,188.928 31.408,188.928 C30.896,188.928 30.496,189.264 30.496,189.776 C30.496,190.272 30.896,190.624 31.408,190.624 L31.408,190.624 Z M30.736,200 L32.048,200 L32.048,192.224 L30.736,192.224 L30.736,200 Z M34.752,198.432 C34.752,199.568 35.152,200.192 36.144,200.192 C36.496,200.192 36.72,200.144 36.896,200.064 L36.72,199.072 C36.576,199.104 36.512,199.104 36.432,199.104 C36.24,199.104 36.064,198.944 36.064,198.528 L36.064,188.608 L34.752,188.608 L34.752,198.432 Z M38.336,196.128 C38.336,198.672 39.984,200.192 42.064,200.192 C43.12,200.192 43.952,199.824 44.624,199.392 L44.16,198.528 C43.584,198.896 42.96,199.136 42.224,199.136 C40.736,199.136 39.728,198.08 39.632,196.4 L44.88,196.4 C44.912,196.208 44.928,195.952 44.928,195.68 C44.928,193.456 43.808,192.032 41.824,192.032 C40.048,192.032 38.336,193.584 38.336,196.128 L38.336,196.128 Z M39.616,195.536 C39.776,193.968 40.768,193.072 41.856,193.072 C43.072,193.072 43.776,193.952 43.776,195.536 L39.616,195.536 Z" id="Mobile-Copy-3" fill="#767676"></path>
                <path d="M113.44,200 L116.128,200 C119.296,200 121.024,198.048 121.024,194.704 C121.024,191.376 119.296,189.504 116.064,189.504 L113.44,189.504 L113.44,200 Z M114.768,198.912 L114.768,190.592 L115.968,190.592 C118.416,190.592 119.648,192.064 119.648,194.704 C119.648,197.36 118.416,198.912 115.968,198.912 L114.768,198.912 Z M122.656,196.128 C122.656,198.672 124.304,200.192 126.384,200.192 C127.44,200.192 128.272,199.824 128.944,199.392 L128.48,198.528 C127.904,198.896 127.28,199.136 126.544,199.136 C125.056,199.136 124.048,198.08 123.952,196.4 L129.2,196.4 C129.232,196.208 129.248,195.952 129.248,195.68 C129.248,193.456 128.128,192.032 126.144,192.032 C124.368,192.032 122.656,193.584 122.656,196.128 L122.656,196.128 Z M123.936,195.536 C124.096,193.968 125.088,193.072 126.176,193.072 C127.392,193.072 128.096,193.952 128.096,195.536 L123.936,195.536 Z M130.384,199.12 C131.12,199.728 132.176,200.192 133.28,200.192 C135.12,200.192 136.128,199.136 136.128,197.872 C136.128,196.4 134.88,195.936 133.76,195.52 C132.88,195.184 132.032,194.912 132.032,194.176 C132.032,193.584 132.48,193.056 133.456,193.056 C134.144,193.056 134.704,193.344 135.232,193.744 L135.856,192.912 C135.264,192.432 134.416,192.032 133.44,192.032 C131.76,192.032 130.768,192.992 130.768,194.24 C130.768,195.552 131.984,196.08 133.088,196.48 C133.936,196.8 134.864,197.152 134.864,197.952 C134.864,198.624 134.352,199.168 133.328,199.168 C132.4,199.168 131.712,198.784 131.04,198.24 L130.384,199.12 Z M138.032,200 L139.328,200 L139.328,197.952 L140.784,196.256 L143.056,200 L144.496,200 L141.536,195.344 L144.144,192.224 L142.688,192.224 L139.376,196.32 L139.328,196.32 L139.328,188.608 L138.032,188.608 L138.032,200 Z M146.032,197.6 C146.032,199.136 146.592,200.192 148.256,200.192 C148.736,200.192 149.264,200.048 149.696,199.904 L149.44,198.912 C149.184,199.008 148.832,199.12 148.56,199.12 C147.664,199.12 147.36,198.576 147.36,197.616 L147.36,193.296 L149.456,193.296 L149.456,192.224 L147.36,192.224 L147.36,190.048 L146.256,190.048 L146.096,192.224 L144.88,192.304 L144.88,193.296 L146.032,193.296 L146.032,197.6 Z M150.56,196.128 C150.56,198.704 152.256,200.192 154.16,200.192 C156.064,200.192 157.76,198.704 157.76,196.128 C157.76,193.52 156.064,192.032 154.16,192.032 C152.256,192.032 150.56,193.52 150.56,196.128 L150.56,196.128 Z M151.92,196.128 C151.92,194.336 152.832,193.12 154.16,193.12 C155.504,193.12 156.4,194.336 156.4,196.128 C156.4,197.904 155.504,199.104 154.16,199.104 C152.832,199.104 151.92,197.904 151.92,196.128 L151.92,196.128 Z M161.168,199.296 C161.888,199.856 162.608,200.192 163.328,200.192 C165.104,200.192 166.688,198.64 166.688,196 C166.688,193.584 165.616,192.032 163.616,192.032 C162.704,192.032 161.84,192.528 161.136,193.12 L161.088,193.12 L160.976,192.224 L159.888,192.224 L159.888,203.28 L161.2,203.28 L161.2,200.656 L161.168,199.296 Z M161.2,198.272 L161.2,194.192 C161.968,193.504 162.624,193.136 163.28,193.136 C164.752,193.136 165.328,194.288 165.328,196 C165.328,197.92 164.384,199.088 163.104,199.088 C162.592,199.088 161.904,198.864 161.2,198.272 L161.2,198.272 Z" id="Desktop-Copy-3" fill="#767676"></path>
            </g>
        </g>
    </g>
</svg>