<?xml version="1.0" encoding="UTF-8" standalone="no"?>
<svg width="148px" height="178px" viewBox="0 0 148 178" version="1.1" xmlns="http://www.w3.org/2000/svg" xmlns:xlink="http://www.w3.org/1999/xlink">
    <!-- Generator: Sketch 41.2 (35397) - http://www.bohemiancoding.com/sketch -->
    <title>grommet-peep-tracy</title>
    <desc>Created with Sketch.</desc>
    <defs></defs>
    <g id="Page-1" stroke="none" stroke-width="1" fill="none" fill-rule="evenodd">
        <g id="grommet-peep-tracy">
            <g id="Group" transform="translate(15.000000, 12.000000)">
                <path d="M7.83744292,31.0171902 C-3.16255708,58.5171902 -2.66255708,104.01719 9.83744292,144.51719 C22.3374429,185.01719 48.8374429,139.51719 56.8374429,128.01719 C64.8374429,116.51719 52.8374429,124.01719 54.8374429,84.0171902 C56.8374429,44.0171902 18.8374429,3.51719019 7.83744292,31.0171902 Z" id="Path-13-Copy" fill="#875C41"></path>
                <path d="M15.1760027,90.1481806 C8.27244334,90.1481806 4.67600271,84.55174 4.67600271,77.6481806 C4.67600271,70.7446212 10.2724433,63.6481806 17.1760027,63.6481806 C24.0795621,63.6481806 32.1760027,68.6481806 29.6760027,77.6481806 C27.1760027,86.6481806 22.0795621,90.1481806 15.1760027,90.1481806 Z" id="Oval-2-Copy-10" fill="#FCD5BD" transform="translate(17.407962, 76.898181) scale(-1, 1) rotate(-3.000000) translate(-17.407962, -76.898181) "></path>
                <path d="M100.176003,90.1481806 C93.2724433,90.1481806 89.6760027,84.55174 89.6760027,77.6481806 C89.6760027,70.7446212 95.2724433,63.6481806 102.176003,63.6481806 C109.079562,63.6481806 117.176003,68.6481806 114.676003,77.6481806 C112.176003,86.6481806 107.079562,90.1481806 100.176003,90.1481806 Z" id="Oval-2-Copy-13" fill="#FCD5BD" transform="translate(102.407962, 76.898181) rotate(-3.000000) translate(-102.407962, -76.898181) "></path>
                <path d="M61.3491852,127.821292 C71.6805834,127.793783 85.534895,118.327215 93.8946987,110.58737 C102.254502,102.847525 104.692526,101.323578 104.692526,78.3769342 C104.692526,55.4302906 106.198385,10.9726374 60.8665229,11.0000126 C15.5346605,11.0273879 18.0243885,54.4302906 18.0243885,78.3769342 C18.0243885,102.323578 20.9696728,102.594784 28.8946987,110.58737 C36.8197246,118.579955 51.0177869,127.8488 61.3491852,127.821292 Z" id="Combined-Shape-Copy-8" fill="#FFE0CD"></path>
                <ellipse id="Oval-6-Copy-10" fill-opacity="0.2" fill="#FFFFFF" cx="63" cy="86" rx="3" ry="2"></ellipse>
                <circle id="Oval-4-Copy-13" fill="#4C3B3B" cx="41" cy="64" r="4"></circle>
                <circle id="Oval-4-Copy-17" fill="#4C3B3B" cx="83" cy="64" r="4"></circle>
                <circle id="Oval-6-Copy-12" fill-opacity="0.5" fill="#FFFFFF" cx="84" cy="62" r="1"></circle>
                <circle id="Oval-6-Copy-13" fill-opacity="0.5" fill="#FFFFFF" cx="42" cy="62" r="1"></circle>
                <path d="M53,88 C53.2542296,89.1418333 56.2679096,92.3521866 60.337936,92.1760933 C64.4079623,92 67.4216423,89.1418333 67.6758719,88" id="Oval-5-Copy-6" stroke="#DEB8A0" stroke-linecap="round" stroke-linejoin="round"></path>
                <path d="M70.0999409,55.0764242 C76.7123047,48.2166911 81.0732572,49.5092555 95.9714374,55.4685276 C98.4714374,56.4685276 98.5057277,53.9330189 97.0057277,53.4330189 C91.3392311,51.5441867 79.8991625,44.7370295 70.0999409,55.0764242 Z" id="Path-8-Copy-10" stroke="#875C41" stroke-width="2" stroke-linecap="round" stroke-linejoin="round" fill="#875C41" transform="translate(84.057785, 52.592542) scale(-1, 1) rotate(-2.000000) translate(-84.057785, -52.592542) "></path>
                <path d="M26.0782514,55.1154325 C29.5782514,54.1154325 32.6800713,51.1485062 47.5782514,57.1077782 C50.0782514,58.1077782 49.0782514,54.6077782 47.5782514,54.1077782 C41.9117548,52.218946 33.5782514,51.1077782 26.0782514,55.1154325 Z" id="Path-8-Copy-11" stroke="#875C41" stroke-width="2" stroke-linecap="round" stroke-linejoin="round" fill="#875C41" transform="translate(37.589628, 54.843377) rotate(-5.000000) translate(-37.589628, -54.843377) "></path>
                <path d="M92.857684,16.2264 C92.857684,16.2264 64.357684,49.7264 19.857684,59.2264 C-10.815644,65.7746386 5.51276731,16.1863755 34.0060371,5.2190074 C71.6109329,-9.25552422 92.857684,16.2264 92.857684,16.2264 Z" id="Path-11-Copy" fill="#875C41"></path>
                <path d="M82.6100372,24.821855 C91.5734472,24.821855 95.6686768,31.6899639 97.8962004,35.900826 C100.123724,40.111688 106,47.8250843 104,75.3250843 C109.5,67.8250843 111.638221,47.9170843 109.953449,37.4938946 C108.268678,27.0707048 104,16.0461157 91.0968062,16.0461157 C88.7004948,16.0461157 84.0545451,21.9328391 82.6100372,24.821855 Z" id="Path-12-Copy" fill="#875C41"></path>
                <path d="M15.6655998,54 C15.6655998,54 11.2666034,73 16.7666034,107 C26.1655998,115.5 10.6655998,98.5 26.1655998,54 C19.3502607,54 15.6655998,54 15.6655998,54 Z" id="Path-15-Copy" fill="#875C41"></path>
                <g id="Group-8-Copy" transform="translate(46.000000, 101.000000)" stroke="#F9C6A6" stroke-linecap="round" fill="#F9C6A6" stroke-linejoin="round">
                    <path d="M15.1885137,8 C9.48408017,8 5.45637884,5.9824364 2.75002989,3.75977928 C-0.568803237,1.03410413 -0.214849124,0.0602294424 3.83885786,1.76887725 C6.52019312,2.89906687 10.2375878,3.87543264 15.1885137,4 C20.3352679,4.12949448 24.1243062,3.12410159 26.7978941,1.9010194 C30.5843681,0.168826955 30.8460594,1.03275949 27.5680982,3.7579671 C24.8937593,5.98133963 20.8944976,8 15.1885137,8 Z" id="Path-14"></path>
                </g>
                <g id="Group-7-Copy" transform="translate(13.000000, 57.000000)" stroke="#4C3B3B" stroke-width="2">
                    <path d="M4.06896552,1.23174949 C11.6724138,-0.434917179 30.9418721,-1.65228021 42.9310345,6.23174949 C45.4655172,7.89841615 43.7758621,16.2317495 40.3965517,19.5650828 C37.0172414,22.8984162 30.2510902,24.8344611 21.7800625,23.9823982 C13.3090348,23.1303352 6.28937903,21.9952187 4.06896552,1.23174949 Z" id="Path-16"></path>
                    <path d="M3.82649798,1.24929922 C0.169009644,1.92118592 -0.160798414,2.73098684 1.23868992,7.58979235 C1.62725512,8.93883022 4.03369589,8.4982221 5.21850533,10.8333333 C4.37367774,5.83333333 3.82649798,4.58263255 3.82649798,1.24929922 Z" id="Path-17" fill="#4C3B3B"></path>
                    <path d="M37.2364994,3.31730027 C43.0161419,5.40607154 44.0149514,6.66666667 48,6.66666667 C48,6.66666667 48,10.0825163 48,10.0825163 C47.4534501,10.0825163 44.8957716,9.74432376 43.105688,15.0244611 C45.1376594,7.45080741 43.8339841,6.12661989 37.2364994,3.31730027 Z" id="Path-18" fill="#4C3B3B"></path>
                    <path d="M4.73108476,5.98664092 C4.46878445,4.22115852 4.13657141,0.937683399 7.98670448,0.59069446" id="Path-19"></path>
                    <path d="M51.848659,1.23174949 C59.4521073,-0.434917179 78.7215656,-1.65228021 90.710728,6.23174949 C93.2452107,7.89841615 91.5555556,16.2317495 88.1762452,19.5650828 C84.7969349,22.8984162 78.0307837,24.8344611 69.559756,23.9823982 C61.0887283,23.1303352 54.0690725,21.9952187 51.848659,1.23174949 Z" id="Path-16" transform="translate(71.889847, 12.091482) scale(-1, 1) translate(-71.889847, -12.091482) "></path>
                    <path d="M94.1347336,1.24929922 C90.4772453,1.92118592 90.1474372,2.73098684 91.5469255,7.58979235 C91.9354907,8.93883022 94.3419315,8.4982221 95.526741,10.8333333 C94.6819134,5.83333333 94.1347336,4.58263255 94.1347336,1.24929922 Z" id="Path-17" fill="#4C3B3B" transform="translate(93.154118, 6.041316) scale(-1, 1) translate(-93.154118, -6.041316) "></path>
                    <path d="M48,3.31730027 C53.7796426,5.40607154 54.778452,6.66666667 58.7635006,6.66666667 C58.7635006,6.66666667 58.7635006,10.0825163 58.7635006,10.0825163 C58.2169507,10.0825163 55.6592722,9.74432376 53.8691886,15.0244611 C55.90116,7.45080741 54.5974847,6.12661989 48,3.31730027 Z" id="Path-18" fill="#4C3B3B" transform="translate(53.381750, 9.170881) scale(-1, 1) translate(-53.381750, -9.170881) "></path>
                    <path d="M88.1574206,5.98664092 C87.8951203,4.22115852 87.5629072,0.937683399 91.4130403,0.59069446" id="Path-19" transform="translate(89.713168, 3.288668) scale(-1, 1) translate(-89.713168, -3.288668) "></path>
                </g>
            </g>
        </g>
    </g>
</svg>