<?xml version="1.0" encoding="UTF-8" standalone="no"?>
<svg width="148px" height="178px" viewBox="0 0 148 178" version="1.1" xmlns="http://www.w3.org/2000/svg" xmlns:xlink="http://www.w3.org/1999/xlink">
    <!-- Generator: Sketch 41.2 (35397) - http://www.bohemiancoding.com/sketch -->
    <title>grommet-peep-alan</title>
    <desc>Created with Sketch.</desc>
    <defs></defs>
    <g id="Page-1" stroke="none" stroke-width="1" fill="none" fill-rule="evenodd">
        <g id="grommet-peep-alan">
            <path d="M25.1760027,99.1481806 C18.2724433,99.1481806 14.6760027,93.55174 14.6760027,86.6481806 C14.6760027,79.7446212 20.2724433,72.6481806 27.1760027,72.6481806 C34.0795621,72.6481806 42.1760027,77.6481806 39.6760027,86.6481806 C37.1760027,95.6481806 32.0795621,99.1481806 25.1760027,99.1481806 Z" id="Oval-2-Copy-9" fill="#CB9C7D" transform="translate(27.407962, 85.898181) scale(-1, 1) rotate(-3.000000) translate(-27.407962, -85.898181) "></path>
            <path d="M114.176003,99.1481806 C107.272443,99.1481806 103.676003,93.55174 103.676003,86.6481806 C103.676003,79.7446212 109.272443,72.6481806 116.176003,72.6481806 C123.079562,72.6481806 131.176003,77.6481806 128.676003,86.6481806 C126.176003,95.6481806 121.079562,99.1481806 114.176003,99.1481806 Z" id="Oval-2-Copy-12" fill="#CB9C7D" transform="translate(116.407962, 85.898181) rotate(-3.000000) translate(-116.407962, -85.898181) "></path>
            <path d="M27.0752743,88.8000396 C27.6770275,102.825995 27.3157465,104.573185 30.8818125,118.336286 C32.442077,124.358069 37.6829762,130.628143 43.4345052,136.341454 C49.1860342,142.054764 55.5983964,149.960603 70.9989442,150.282245 C86.3994921,150.603886 93.4735025,144.780977 102.118307,136.782305 C110.763112,128.783633 113.981535,124.691857 114.840922,118.336286 C116.928217,102.89975 118.004525,102.848883 118.004525,88.8000396 C118.004525,44.958896 121.961244,25.0273753 72.5022616,26.0273753 C23.1185557,25.0273753 25.0649602,41.9426649 27.0752743,88.8000396 Z" id="Combined-Shape-Copy-7" fill="#DFAC8B"></path>
            <path d="M27.0752743,90.8000396 C27.6770275,104.825995 27.3157465,104.573185 30.8818125,118.336286 C32.442077,124.358069 37.6829762,130.628143 43.4345052,136.341454 C49.1860342,142.054764 55.5983964,149.960603 70.9989442,150.282245 C86.3994921,150.603886 93.4735025,144.780977 102.118307,136.782305 C110.763112,128.783633 113.981535,124.691857 114.840922,118.336286 C116.928217,102.89975 118.004525,104.848883 118.004525,90.8000396 C118.004525,62.6942381 119.080912,104.606597 107.985311,119.58089 C97.3319243,133.958384 99.7714844,111.131969 73,111.131969 C46.2285156,111.131969 50.478001,136.341454 36.6159334,118.336286 C24.8554165,103.06078 25.800423,61.0851883 27.0752743,90.8000396 Z" id="Combined-Shape-Copy-7" fill-opacity="0.1" fill="#4C3B3B"></path>
            <path d="M27.0752743,90.8000396 C27.6770275,104.825995 27.3157465,104.573185 30.8818125,118.336286 C32.442077,124.358069 37.6829762,130.628143 43.4345052,136.341454 C49.1860342,142.054764 55.5983964,149.960603 70.9989442,150.282245 C86.3994921,150.603886 93.4735025,144.780977 102.118307,136.782305 C110.763112,128.783633 113.981535,124.691857 114.840922,118.336286 C116.928217,102.89975 118.004525,104.848883 118.004525,90.8000396 C118.004525,62.6942381 116.434509,100.418838 112.14542,118.336286 C110.911194,123.492203 97.9651494,138.981037 91.4051762,142.162487 C85.9590502,144.803745 80.4402856,146.783812 72.3878872,146.946621 C64.072366,146.778235 58.6622267,145.083719 52.9892777,142.162487 C46.3368592,138.736887 35.3366722,123.724588 33.7976354,118.336286 C28.6288814,100.240023 25.800423,61.0851883 27.0752743,90.8000396 Z" id="Combined-Shape-Copy-7" fill-opacity="0.3" fill="#333333"></path>
            <path d="M30.1166808,64.0078559 C33.1524292,56.81477 32.5523319,35.9522658 39.1208883,32.1304336 C45.8526133,28.2136638 62.3490998,31.8397038 74.0042075,32.1304336 C85.4091609,32.4149235 98.6118846,28.0709002 105.120888,32.1304336 C111.534455,36.1304453 111.179114,57.9959615 114.116681,65.0078559 C118.392517,75.2141654 116.906972,78.1071103 117.116681,93.0078559 C117.889348,76.8548557 120.116681,57.7610779 120.116681,45.0078559 C120.116681,30.9923078 115.004207,5.04296875 74.0042075,5.04296875 C33.0042075,5.04296875 25.3171828,26.7876232 24.1166808,45.0078559 C23.2911553,57.5370033 27.1166808,76.2722744 27.1166808,93.0078559 C27.1166808,77.7425031 25.8531136,74.1102099 30.1166808,64.0078559 Z" id="Combined-Shape-Copy-13" fill="#333333"></path>
            <ellipse id="Oval-6-Copy-9" fill-opacity="0.2" fill="#FFFFFF" cx="75" cy="101" rx="3" ry="2"></ellipse>
            <circle id="Oval-4-Copy-12" fill="#4C3B3B" cx="53" cy="80" r="4"></circle>
            <circle id="Oval-4-Copy-16" fill="#4C3B3B" cx="92" cy="80" r="4"></circle>
            <path d="M59,70 C59,74.418278 61.9101491,78 65.5,78" id="Oval-4-Copy-20" stroke="#CB9C7D" stroke-width="2" stroke-linecap="round" stroke-linejoin="round" transform="translate(62.250000, 74.000000) scale(-1, -1) translate(-62.250000, -74.000000) "></path>
            <path d="M79,70 C79,74.418278 81.9101491,78 85.5,78" id="Oval-4-Copy-21" stroke="#CB9C7D" stroke-width="2" stroke-linecap="round" stroke-linejoin="round" transform="translate(82.250000, 74.000000) scale(1, -1) translate(-82.250000, -74.000000) "></path>
            <path d="M68,128 L77,128" id="Path-3-Copy-4" stroke="#9D7861" stroke-width="2" stroke-linecap="round" stroke-linejoin="round"></path>
            <path d="M81.3999996,103 C81.3999996,103 79.1377786,103.783911 79.0405778,104.295633 C78.8236882,105.437466 78.4212373,106.367881 77.6980649,107.058259 C76.7346202,107.978012 75.201932,108.471726 72.7804026,108.471726 C70.3588732,108.471726 68.8261851,107.978012 67.8627403,107.058259 C67.1395679,106.367881 66.737117,105.437466 66.5202274,104.295633 L64,103" id="Oval-5-Copy-5" stroke="#806C5F" stroke-width="2" stroke-linecap="round" stroke-linejoin="round"></path>
            <path d="M61,121 C61.5726295,121.113737 64.175878,123.391075 73.5,123.120095 C82.824122,122.849116 86,121 86,121" id="Path-4-Copy-3" stroke="#806C5F" stroke-width="2" stroke-linecap="round" stroke-linejoin="round"></path>
            <path d="M44,69.1424729 C47.5,68.1424729 53,65.3502435 62,68.3502435" id="Path-8-Copy-8" stroke="#333333" stroke-width="6" stroke-linecap="round" stroke-linejoin="round"></path>
            <path d="M83,69.1424729 C86.5,68.1424729 92,65.3502435 101,68.3502435" id="Path-8-Copy-9" stroke="#333333" stroke-width="6" stroke-linecap="round" stroke-linejoin="round" transform="translate(92.000000, 68.071236) scale(-1, 1) translate(-92.000000, -68.071236) "></path>
            <ellipse id="Oval-6-Copy-15" fill-opacity="0.2" fill="#FFFFFF" cx="83" cy="125" rx="3" ry="2"></ellipse>
            <path d="M72.9131231,135 C78.1188673,135 84.69206,129.285083 80.3261324,128.237204 C77.7510735,127.619157 76.6200632,127 72.9131231,127 C69.2061829,127 67.6097645,127.987703 65.363315,128.237204 C61.1079753,128.709822 67.7073788,135 72.9131231,135 Z" id="Combined-Shape-Copy-18" fill-opacity="0.3" fill="#333333"></path>
            <path d="M65.128588,97.1292739 C65.128588,97.1292739 59.8677628,97.9146476 60.7259951,103.174937" id="Path-2" stroke="#806C5F" stroke-width="2" stroke-linecap="round" stroke-linejoin="round"></path>
            <path d="M84.4972397,97 C84.4972397,97 79.2364144,97.7853737 80.0946468,103.045663" id="Path-2" stroke="#806C5F" stroke-width="2" stroke-linecap="round" stroke-linejoin="round" transform="translate(82.248620, 100.022832) scale(-1, 1) translate(-82.248620, -100.022832) "></path>
        </g>
    </g>
</svg>