<?xml version="1.0" encoding="UTF-8" standalone="no"?>
<svg width="148px" height="178px" viewBox="0 0 148 178" version="1.1" xmlns="http://www.w3.org/2000/svg" xmlns:xlink="http://www.w3.org/1999/xlink">
    <!-- Generator: Sketch 41.2 (35397) - http://www.bohemiancoding.com/sketch -->
    <title>grommet-peep-eric</title>
    <desc>Created with Sketch.</desc>
    <defs></defs>
    <g id="Page-1" stroke="none" stroke-width="1" fill="none" fill-rule="evenodd">
        <g id="grommet-peep-eric">
            <path d="M111.5,103.5 C104.596441,103.5 101,97.9035594 101,91 C101,84.0964406 106.596441,77 113.5,77 C120.403559,77 128.5,82 126,91 C123.5,100 118.403559,103.5 111.5,103.5 Z" id="Oval-2-Copy" fill="#D2A780"></path>
            <path d="M34.9639192,103.5 C41.8674786,103.5 45.4639192,97.9035594 45.4639192,91 C45.4639192,84.0964406 39.8674786,77 32.9639192,77 C26.0603599,77 17.9639192,82 20.4639192,91 C22.9639192,100 28.0603599,103.5 34.9639192,103.5 Z" id="Oval-2" fill="#D2A780"></path>
            <path d="M29,82.5271678 C29,97.803187 31.257183,99.8180427 33.0291264,114.199462 C33.919837,121.428635 40.4374302,128.649257 48.3778777,136.127149 C61.8198347,148.786071 59.8689889,150.527168 73,150.527168 C86.1310111,150.527168 83.1838701,148.786071 96.625827,136.127149 C104.566275,128.649257 112.080163,121.428635 112.970874,114.199462 C114.742817,99.8180427 116.445242,97.7211892 117,82.5271678 C118.367393,45.0762736 112,24.0271678 73,25.0271678 C34,24.0271678 29,50.7707947 29,82.5271678 Z" id="Combined-Shape" fill="#EBB889"></path>
            <path d="M31,93.5271678 C31,108.803187 31.257183,99.8180427 33.0291264,114.199462 C33.919837,121.428635 40.4374302,128.649257 48.3778777,136.127149 C61.8198347,148.786071 59.8689889,150.527168 73,150.527168 C86.1310111,150.527168 83.1838701,148.786071 96.625827,136.127149 C104.566275,128.649257 112.080163,121.428635 112.970874,114.199462 C114.742817,99.8180427 114.445242,108.721189 115,93.5271678 C115,93.5271678 112.123377,114.047808 106.309219,117.82624 C103.720724,119.508419 93.3399555,107.171477 91.5625162,107.828379 C85.9993826,109.884392 79.7115976,111.320312 73,111.320312 C66.9073709,111.320312 61.1639879,110.137031 55.9948965,108.380757 C52.9240677,107.337398 42.9826721,119.231635 40.9020312,117.883451 C35.034482,114.081481 31,93.5271678 31,93.5271678 Z" id="Combined-Shape" fill-opacity="0.400000006" fill="#D2A780"></path>
            <path d="M73,150.527168 C86.1310111,150.527168 83.1838701,148.786071 96.625827,136.127149 C104.566275,128.649257 112.080163,121.428635 112.970874,114.199462 C114.742817,99.8180427 116.445242,97.7211892 117,82.5271678 C118.037149,54.1211732 109.591833,30.6152127 90.8649366,23.5454247 C101.596307,50.4550807 117,118.430957 73,150.527168 Z" id="Combined-Shape" fill-opacity="0.2" fill="#DFA581"></path>
            <path d="M116,91.2456019 C117.863413,82.6852501 119,69.5864127 119,59.2456019 C119,30.4371122 103.838849,19.668473 90.7566805,15.6444245 C86.369011,14.2947863 68.5,8.75540394 70,10.2554039 C71.5,11.7554039 74.1223809,13.2456019 73,13.2456019 C71.2159121,13.2456019 54.5,15 48.0054686,18.3910338 C37.2115541,24.0269338 28,35.4212539 28,59.2456019 C28,69.285008 28.3462404,82.9200881 30,91.2456019 C29.0407206,84.1582595 31,75.5376198 31,66.2456019 C31,47.7963039 37.1104444,38.931873 44.745818,34.8925085 C55.7160216,29.0889091 44.745818,32 53.5,38.5 C65.8912825,47.7005554 76.3292799,45.3246597 89,38.5 C93.4905994,36.0812888 99.9233049,33.1045795 104.581516,36.3106245 C111.139597,40.8242684 116,49.6309593 116,66.2456019 C116,75.6732081 115.887683,84.0919105 115.324991,91.5090578 L116,91.2456019 Z" id="Oval-3" fill="#604A3C"></path>
            <ellipse id="Oval-4" fill="#9D7861" cx="54" cy="85" rx="3" ry="4"></ellipse>
            <path d="M60.810677,71.3343078 C58.5417932,69.8630011 55.7815524,69 52.8042418,69 C49.9148144,69 47.229831,69.8128055 45,71.205616" id="Oval-4" stroke="#604A3C" stroke-width="3" stroke-linecap="round" stroke-linejoin="round"></path>
            <path d="M101.810677,71.3343078 C99.5417932,69.8630011 96.7815524,69 93.8042418,69 C90.9148144,69 88.229831,69.8128055 86,71.205616" id="Oval-4-Copy-2" stroke="#604A3C" stroke-width="3" stroke-linecap="round" stroke-linejoin="round"></path>
            <ellipse id="Oval-4-Copy" fill="#9D7861" cx="94" cy="85" rx="3" ry="4"></ellipse>
            <path d="M86,86 C86,90.418278 88.9101491,94 92.5,94 L92.5,94" id="Oval-4-Copy" stroke-opacity="0.4" stroke="#D2A780" stroke-width="2" stroke-linecap="round" stroke-linejoin="round"></path>
            <path d="M56,86 C56,90.418278 58.9101491,94 62.5,94 L62.5,94" id="Oval-4-Copy" stroke-opacity="0.4" stroke="#D2A780" stroke-width="2" stroke-linecap="round" stroke-linejoin="round" transform="translate(59.250000, 90.000000) scale(-1, 1) translate(-59.250000, -90.000000) "></path>
            <path d="M69.5,126 L78.5,126" id="Path-3" stroke="#9D7861" stroke-width="2" stroke-linecap="round" stroke-linejoin="round"></path>
            <path d="M64.3241281,103.823907 C64.6247117,104.96574 65.1824617,105.896155 66.1846942,106.586533 C67.5199161,107.506286 69.644043,108 73,108 C76.355957,108 78.4800839,107.506286 79.8153058,106.586533 C80.8175383,105.896155 81.3752883,104.96574 81.6758719,103.823907" id="Oval-5" stroke="#9D7861" stroke-width="2" stroke-linecap="round" stroke-linejoin="round"></path>
            <path d="M58.5,119.870006 C59.255871,120.115995 67.0582802,121.357474 74.807841,121.413928 C80.3588098,121.454366 87.0405405,119.870006 90.5,116.914683" id="Path-4" stroke="#9D7861" stroke-width="2" stroke-linecap="round" stroke-linejoin="round"></path>
            <ellipse id="Oval-6" fill-opacity="0.2" fill="#FFFFFF" cx="73.5" cy="96.5" rx="3.5" ry="1.5"></ellipse>
        </g>
    </g>
</svg>