<?xml version="1.0" encoding="UTF-8" standalone="no"?>
<svg width="148px" height="178px" viewBox="0 0 148 178" version="1.1" xmlns="http://www.w3.org/2000/svg" xmlns:xlink="http://www.w3.org/1999/xlink">
    <!-- Generator: Sketch 41.2 (35397) - http://www.bohemiancoding.com/sketch -->
    <title>grommet-peep-chris</title>
    <desc>Created with Sketch.</desc>
    <defs></defs>
    <g id="Page-1" stroke="none" stroke-width="1" fill="none" fill-rule="evenodd">
        <g id="grommet-peep-chris">
            <g id="Group" transform="translate(17.000000, 5.000000)">
                <path d="M57,4 C63,4 63,4 63,2.5 C63,1 61,0 57,0 C53,1.6328624e-16 51,1 51,2.5 C51,4 51,4 57,4 Z" id="Oval-10-Copy" fill="#6B44B5"></path>
                <polygon id="Path-9-Copy-2" fill="#ABAAAA" points="11 64 16 69 16 61"></polygon>
                <polygon id="Path-9-Copy-5" fill="#ABAAAA" transform="translate(102.500000, 65.000000) scale(-1, 1) translate(-102.500000, -65.000000) " points="100 64 105 69 105 61"></polygon>
                <path d="M11.1760027,94.1481806 C4.27244334,94.1481806 0.676002712,88.55174 0.676002712,81.6481806 C0.676002712,74.7446212 6.27244334,67.6481806 13.1760027,67.6481806 C20.0795621,67.6481806 28.1760027,72.6481806 25.6760027,81.6481806 C23.1760027,90.6481806 18.0795621,94.1481806 11.1760027,94.1481806 Z" id="Oval-2-Copy-11" fill="#F9C6A6" transform="translate(13.407962, 80.898181) scale(-1, 1) rotate(-3.000000) translate(-13.407962, -80.898181) "></path>
                <path d="M100.176003,94.1481806 C93.2724433,94.1481806 89.6760027,88.55174 89.6760027,81.6481806 C89.6760027,74.7446212 95.2724433,67.6481806 102.176003,67.6481806 C109.079562,67.6481806 117.176003,72.6481806 114.676003,81.6481806 C112.176003,90.6481806 107.079562,94.1481806 100.176003,94.1481806 Z" id="Oval-2-Copy-14" fill="#F9C6A6" transform="translate(102.407962, 80.898181) rotate(-3.000000) translate(-102.407962, -80.898181) "></path>
                <path d="M68.9716741,144.078112 C77.4849789,137.456653 84.1064382,128.943348 90.7278974,120.430044 C97.3493175,111.916789 99.4453001,94.2574026 99.2412022,79.7553651 C98.7682408,46.1494088 95.4575112,23 59.5124466,23 C23.567382,23 16,44.4971814 16,79.7553651 C16,94.2052993 16.9459228,112.862661 23.567382,120.430044 C30.7097479,128.592747 38.7021461,136.51073 49.1072963,144.078112 C51.6894288,145.956027 66.7026501,145.842909 68.9716741,144.078112 Z" id="Combined-Shape-Copy-9" fill="#F9C6A6"></path>
                <path d="M68.9730797,144.322747 C77.4863845,137.701288 84.1078437,129.187983 90.729303,120.674678 C97.3507231,112.161424 99.4467056,94.5020375 99.2426078,80 C99.1506667,84.0337616 96.993822,81.2795529 96.6216238,84.2446349 C95.4090829,93.9042262 92.3947787,106.506065 84.875,110.253906 C79.1127547,113.125796 70.9071034,108.244635 57.6216238,108.244635 C45.0167695,108.244635 35.9788586,112.697844 30.1527662,109.607509 C22.2325022,105.406362 19.8327267,92.511267 18.6216238,84.2446349 C18.1830999,81.2513999 15.9358504,84.0123219 16.0014056,80 C16.0014056,94.4499342 16.9473283,113.107296 23.5687876,120.674678 C30.7111535,128.837382 38.7035516,136.755365 49.1087019,144.322747 C51.6908343,146.200662 66.7040557,146.087544 68.9730797,144.322747 Z" id="Combined-Shape-Copy-10" fill-opacity="0.1" fill="#444444"></path>
                <path d="M99.3766673,93.9883859 C99.818742,89.2661532 99.9753852,84.4822667 99.912303,80 C99.8203619,84.0337616 97.6635173,81.2795529 97.291319,84.2446349 C96.8428084,87.8176516 96.0333407,91.8652086 95.094583,95.9536602 C94.2796658,99.5027652 98.987747,98.1428237 99.3766673,93.9883859 Z" id="Combined-Shape-Copy-11" fill-opacity="0.2" fill="#444444"></path>
                <path d="M21.3766673,93.9883859 C21.818742,89.2661532 21.9753852,84.4822667 21.912303,80 C21.8203619,84.0337616 19.6635173,81.2795529 19.291319,84.2446349 C18.8428084,87.8176516 18.0333407,91.8652086 17.094583,95.9536602 C16.2796658,99.5027652 20.987747,98.1428237 21.3766673,93.9883859 Z" id="Combined-Shape-Copy-12" fill-opacity="0.2" fill="#444444" transform="translate(19.462849, 88.995934) scale(-1, 1) translate(-19.462849, -88.995934) "></path>
                <ellipse id="Oval-6-Copy-11" fill-opacity="0.2" fill="#FFFFFF" transform="translate(61.000000, 97.000000) rotate(-90.000000) translate(-61.000000, -97.000000) " cx="61" cy="97" rx="3" ry="2"></ellipse>
                <ellipse id="Oval-4-Copy-14" fill="#444444" cx="40" cy="79" rx="3" ry="4"></ellipse>
                <ellipse id="Oval-4-Copy-18" fill="#444444" cx="80" cy="79" rx="3" ry="4"></ellipse>
                <path d="M49,100 C49.315107,101.415255 49.8998058,102.568466 50.9504634,103.424159 C52.3501994,104.564155 54.576958,105.176093 58.0950653,105.176093 C61.6131726,105.176093 63.8399311,104.564155 65.2396671,103.424159 C66.2903247,102.568466 66.8750236,101.415255 67.1901305,100" id="Oval-5-Copy-7" stroke="#9D7861" stroke-width="2" stroke-linecap="round" stroke-linejoin="round"></path>
                <path d="M68.0500037,65.8549292 C71.5500037,64.8549292 81.0500037,64.0626998 90.0500037,67.0626998" id="Path-8-Copy-12" stroke="#444444" stroke-width="5" stroke-linecap="round" stroke-linejoin="round" transform="translate(79.050004, 66.008701) scale(-1, 1) rotate(-5.000000) translate(-79.050004, -66.008701) "></path>
                <path d="M29.0500037,65.8549292 C32.5500037,64.8549292 42.0500037,64.0626998 51.0500037,67.0626998" id="Path-8-Copy-13" stroke="#444444" stroke-width="5" stroke-linecap="round" stroke-linejoin="round" transform="translate(40.050004, 66.008701) rotate(-5.000000) translate(-40.050004, -66.008701) "></path>
                <path d="M98.9659735,83.5976563 C102.965974,71.2247545 102.965974,48.7988702 102.965974,48.7988702 C102.965974,48.7988702 83.9659735,44.9323384 91.9659735,54.2120147 C99.9659735,63.491691 97,78.2669364 97,86" id="Path-9-Copy-6" fill="#444444"></path>
                <path d="M17,83.5976563 C13,71.2247545 13,48.7988702 13,48.7988702 C13,48.7988702 32,44.9323384 24,54.2120147 C16,63.491691 19.4829868,79.2669364 19.4829868,87 C19.4829868,87 17,83.5976563 17,83.5976563 Z" id="Path-9-Copy-7" fill="#444444"></path>
                <g id="Group-2-Copy" transform="translate(10.000000, 2.000000)">
                    <path d="M14.1804442,7.76363636 C25.8576293,0.854497715 38.4135691,6.9359652e-15 48.0349366,0 C57.6563041,-7.13910896e-15 71.0139169,0.801019904 82.597617,7.76363636 C97.3591671,16.6363636 95.3096719,58.7818182 95.3096719,58.7818182 C95.3096719,58.7818182 71.5857521,51.0181818 47.8618324,51.0181818 C24.1379126,51.0181818 0.413992836,58.7818182 0.413992836,58.7818182 C0.413992836,58.7818182 -2.68989876,17.7454545 14.1804442,7.76363636 Z" id="Rectangle" fill="#865CD6"></path>
                    <path d="M0,61 C0,61 24.5287356,51.0181818 48.5,51.0181818 C72.4712644,51.0181818 97,61 97,61" id="Path-10" stroke="#6B44B5" stroke-width="4" stroke-linecap="round"></path>
                </g>
                <ellipse id="Oval-9-Copy" stroke="#FFFFFF" stroke-width="5" cx="58" cy="30" rx="13" ry="13"></ellipse>
                <path d="M71.2501208,120 C70.6359757,120.199866 64.2965182,121.208568 58,121.254436 C51.9536026,121.208568 45.6141452,120.199866 45,120" id="Path-4-Copy-4" stroke-opacity="0.4" stroke="#444444" stroke-width="2" stroke-linecap="round" stroke-linejoin="round" transform="translate(58.125060, 120.627218) scale(-1, 1) translate(-58.125060, -120.627218) "></path>
            </g>
        </g>
    </g>
</svg>